<?xml version="1.0" encoding="utf-8"?>
<!-- Generator: Adobe Illustrator 23.0.1, SVG Export Plug-In . SVG Version: 6.00 Build 0)  -->
<svg version="1.1" id="Layer_1" xmlns="http://www.w3.org/2000/svg" xmlns:xlink="http://www.w3.org/1999/xlink" x="0px" y="0px"
	 viewBox="0 0 469.9 551.3" style="enable-background:new 0 0 469.9 551.3;" xml:space="preserve">
<style type="text/css">
	.st0{fill:#FFFFFF;}
</style>
<g>
	<g>
		<path class="st0" d="M300.6,204l19.9-34.6c5.8-10.1,2.4-23-7.7-28.9c-10.1-5.8-23-2.4-28.8,7.7L264,182.9
			c-42.5-13.4-90,3.9-113.2,44.1c-14.7,25.5-16.6,54.9-7.6,80.7l36.8-63.8c0,0,0,0,0,0c8.5-14.7,22.1-25.1,38.4-29.5
			c16.3-4.4,33.4-2.1,48.1,6.3c30.2,17.5,40.6,56.3,23.2,86.6c-17.5,30.3-56.3,40.7-86.5,23.2l21.1-36.6c10.1,5.8,23,2.4,28.8-7.7
			c5.8-10.1,2.4-23-7.7-28.9c-10.1-5.8-23-2.4-28.8,7.7l-67.3,116.7c-5.8,10.1-2.4,23,7.7,28.8c10.1,5.8,23,2.4,28.8-7.7l19.9-34.5
			c42.5,13.4,90-3.9,113.2-44.1C342.2,284,333.4,234.2,300.6,204z"/>
	</g>
</g>
</svg>
